# xmcd
#
# Track frame offsets: 
#        150
#        10262
#        19577
#        29994
#        40945
#        51475
#        61735
#        69844
#        80010
#        88634
#        101371
#        112584
#        124551
#        134018
#        147823
#        159194
#        172338
#        182413
#        192949
#        209186
#        217585
#        235346
#        257102
#        267996
#        287946
#
# Disc length: 3981 seconds
#
# Revision: 0
# Processed by: cddbd v1.5.2PL0 Copyright (c) Steve Scherf et al.
# Submitted via: ExactAudioCopyFreeDBPlugin 1.0
#
DISCID=680f8b19
DTITLE=Johnny Cash and June Carter - Country Lovers [CD 1)
DYEAR=1900
DGENRE=Country
TTITLE0=All Over Again
TTITLE1=Blue Train
TTITLE2=Jukebox Blue
TTITLE3=(I Heard That) Lonesome Whistle
TTITLE4=Bonanza
TTITLE5=Honey Look What You´ve Done
TTITLE6=Five Feet High And Rising
TTITLE7=Get Rhythm
TTITLE8=I Got Stripes (Live)
TTITLE9=She Loves To Cry
TTITLE10=Cry Cry Cry
TTITLE11=I Still Miss Someone (Live)
TTITLE12=I´ll Remember You
TTITLE13=Don´t Take Your Guns To Town
TTITLE14=Seasons Of My Heart
TTITLE15=Country Girl
TTITLE16=Hey Porter
TTITLE17=Bald Headed End Of The Broom
TTITLE18=A Boy Namend Sue (Live)
TTITLE19=Guess Things Happen That Way
TTITLE20=Boss Jack
TTITLE21=Dorraine Of Ponchartrain
TTITLE22=For Cryin´ Out Loud
TTITLE23=Going To Memphis
TTITLE24=Music Music Music
EXTD=
EXTT0=
EXTT1=
EXTT2=
EXTT3=
EXTT4=
EXTT5=
EXTT6=
EXTT7=
EXTT8=
EXTT9=
EXTT10=
EXTT11=
EXTT12=
EXTT13=
EXTT14=
EXTT15=
EXTT16=
EXTT17=
EXTT18=
EXTT19=
EXTT20=
EXTT21=
EXTT22=
EXTT23=
EXTT24=
PLAYORDER=
